<svg width="32" height="32" viewBox="0 0 32 32" fill="none" xmlns="http://www.w3.org/2000/svg">
  <rect width="32" height="32" rx="6" fill="#121212"/>
  <path d="M6 10H12C14.2091 10 16 11.7909 16 14V14C16 16.2091 14.2091 18 12 18H6V10Z" fill="#6E56CF"/>
  <path d="M6 18H12C14.2091 18 16 19.7909 16 22V22C16 24.2091 14.2091 26 12 26H6V18Z" fill="#3E9BC0"/>
  <path d="M16 10H22C24.2091 10 26 11.7909 26 14V14C26 16.2091 24.2091 18 22 18H16V10Z" fill="#6E56CF"/>
  <path d="M16 18H22C24.2091 18 26 19.7909 26 22V22C26 24.2091 24.2091 26 22 26H16V18Z" fill="#3E9BC0"/>
  <path d="M11 14.5C11 15.3284 10.3284 16 9.5 16C8.67157 16 8 15.3284 8 14.5C8 13.6716 8.67157 13 9.5 13C10.3284 13 11 13.6716 11 14.5Z" fill="white"/>
  <path d="M11 22.5C11 23.3284 10.3284 24 9.5 24C8.67157 24 8 23.3284 8 22.5C8 21.6716 8.67157 21 9.5 21C10.3284 21 11 21.6716 11 22.5Z" fill="white"/>
  <path d="M24 14.5C24 15.3284 23.3284 16 22.5 16C21.6716 16 21 15.3284 21 14.5C21 13.6716 21.6716 13 22.5 13C23.3284 13 24 13.6716 24 14.5Z" fill="white"/>
  <path d="M24 22.5C24 23.3284 23.3284 24 22.5 24C21.6716 24 21 23.3284 21 22.5C21 21.6716 21.6716 21 22.5 21C23.3284 21 24 21.6716 24 22.5Z" fill="white"/>
</svg>
